<svg version="1.1" viewBox="0.0 0.0 960.0 720.0" fill="none" stroke="none" stroke-linecap="square" stroke-miterlimit="10" xmlns:xlink="http://www.w3.org/1999/xlink" xmlns="http://www.w3.org/2000/svg"><clipPath id="g2a84b12df5_0_0.0"><path d="m0 0l960.0 0l0 720.0l-960.0 0l0 -720.0z" clip-rule="nonzero"/></clipPath><g clip-path="url(#g2a84b12df5_0_0.0)"><path fill="#ffffff" d="m0 0l960.0 0l0 720.0l-960.0 0z" fill-rule="evenodd"/><path fill="#ffab40" d="m366.99213 534.64044l50.853546 -50.853577l0 25.426788l36.72757 0l0 -36.72757l-25.426788 0l50.853546 -50.853546l50.853516 50.853546l-25.426758 0l0 36.72757l36.7276 0l0 -25.426788l50.853516 50.853577l-50.853516 50.853516l0 -25.426758l-36.7276 0l0 36.72754l25.426758 0l-50.853516 50.853577l-50.853546 -50.853577l25.426788 0l0 -36.72754l-36.72757 0l0 25.426758z" fill-rule="evenodd"/><path stroke="#595959" stroke-width="2.0" stroke-linejoin="round" stroke-linecap="butt" d="m366.99213 534.64044l50.853546 -50.853577l0 25.426788l36.72757 0l0 -36.72757l-25.426788 0l50.853546 -50.853546l50.853516 50.853546l-25.426758 0l0 36.72757l36.7276 0l0 -25.426788l50.853516 50.853577l-50.853516 50.853516l0 -25.426758l-36.7276 0l0 36.72754l25.426758 0l-50.853516 50.853577l-50.853546 -50.853577l25.426788 0l0 -36.72754l-36.72757 0l0 25.426758z" fill-rule="evenodd"/><path fill="#eeeeee" d="m441.0551 534.64044l0 0c0 -21.508667 17.436218 -38.944916 38.944885 -38.944916c21.508667 0 38.944885 17.436249 38.944885 38.944916c0 21.508667 -17.436218 38.944885 -38.944885 38.944885c-21.508667 0 -38.944885 -17.436218 -38.944885 -38.944885z" fill-rule="evenodd"/><path fill="#bebebe" d="m463.46646 522.99304c0 -2.2405396 1.8162537 -4.0567627 4.0567627 -4.0567627c2.2404785 0 4.0567627 1.8162231 4.0567627 4.0567627c0 2.2404785 -1.8162842 4.0567017 -4.0567627 4.0567017c-2.240509 0 -4.0567627 -1.8162231 -4.0567627 -4.0567017m24.953552 0c0 -2.2405396 1.8162842 -4.0567627 4.0567627 -4.0567627c2.240509 0 4.0567627 1.8162231 4.0567627 4.0567627c0 2.2404785 -1.8162537 4.0567017 -4.0567627 4.0567017c-2.2404785 0 -4.0567627 -1.8162231 -4.0567627 -4.0567017" fill-rule="evenodd"/><path fill="#000000" fill-opacity="0.0" d="m458.89163 551.6246q21.108368 14.496826 42.16745 0" fill-rule="evenodd"/><path fill="#000000" fill-opacity="0.0" d="m441.0551 534.64044l0 0c0 -21.508667 17.436218 -38.944916 38.944885 -38.944916c21.508667 0 38.944885 17.436249 38.944885 38.944916c0 21.508667 -17.436218 38.944885 -38.944885 38.944885c-21.508667 0 -38.944885 -17.436218 -38.944885 -38.944885z" fill-rule="evenodd"/><path stroke="#595959" stroke-width="2.0" stroke-linejoin="round" stroke-linecap="butt" d="m463.46646 522.99304c0 -2.2405396 1.8162537 -4.0567627 4.0567627 -4.0567627c2.2404785 0 4.0567627 1.8162231 4.0567627 4.0567627c0 2.2404785 -1.8162842 4.0567017 -4.0567627 4.0567017c-2.240509 0 -4.0567627 -1.8162231 -4.0567627 -4.0567017m24.953552 0c0 -2.2405396 1.8162842 -4.0567627 4.0567627 -4.0567627c2.240509 0 4.0567627 1.8162231 4.0567627 4.0567627c0 2.2404785 -1.8162537 4.0567017 -4.0567627 4.0567017c-2.2404785 0 -4.0567627 -1.8162231 -4.0567627 -4.0567017" fill-rule="evenodd"/><path stroke="#595959" stroke-width="2.0" stroke-linejoin="round" stroke-linecap="butt" d="m458.89163 551.6246q21.108368 14.496826 42.16745 0" fill-rule="evenodd"/><path stroke="#595959" stroke-width="2.0" stroke-linejoin="round" stroke-linecap="butt" d="m441.0551 534.64044l0 0c0 -21.508667 17.436218 -38.944916 38.944885 -38.944916c21.508667 0 38.944885 17.436249 38.944885 38.944916c0 21.508667 -17.436218 38.944885 -38.944885 38.944885c-21.508667 0 -38.944885 -17.436218 -38.944885 -38.944885z" fill-rule="evenodd"/><path fill="#eeeeee" d="m363.16534 308.62466l0 0c0 -21.508667 17.436218 -38.944885 38.944885 -38.944885c21.508667 0 38.944885 17.436218 38.944885 38.944885c0 21.508667 -17.436218 38.944885 -38.944885 38.944885c-21.508667 0 -38.944885 -17.436218 -38.944885 -38.944885z" fill-rule="evenodd"/><path fill="#bebebe" d="m385.5767 296.97726c0 -2.2404785 1.8162842 -4.0567627 4.0567627 -4.0567627c2.2404785 0 4.0567627 1.8162842 4.0567627 4.0567627c0 2.2404785 -1.8162842 4.0567627 -4.0567627 4.0567627c-2.2404785 0 -4.0567627 -1.8162842 -4.0567627 -4.0567627m24.953583 0c0 -2.2404785 1.8162537 -4.0567627 4.0567627 -4.0567627c2.2404785 0 4.056732 1.8162842 4.056732 4.0567627c0 2.2404785 -1.8162537 4.0567627 -4.056732 4.0567627c-2.240509 0 -4.0567627 -1.8162842 -4.0567627 -4.0567627" fill-rule="evenodd"/><path fill="#000000" fill-opacity="0.0" d="m381.00186 325.6088q21.108368 14.496857 42.16745 0" fill-rule="evenodd"/><path fill="#000000" fill-opacity="0.0" d="m363.16534 308.62466l0 0c0 -21.508667 17.436218 -38.944885 38.944885 -38.944885c21.508667 0 38.944885 17.436218 38.944885 38.944885c0 21.508667 -17.436218 38.944885 -38.944885 38.944885c-21.508667 0 -38.944885 -17.436218 -38.944885 -38.944885z" fill-rule="evenodd"/><path stroke="#595959" stroke-width="2.0" stroke-linejoin="round" stroke-linecap="butt" d="m385.5767 296.97726c0 -2.2404785 1.8162842 -4.0567627 4.0567627 -4.0567627c2.2404785 0 4.0567627 1.8162842 4.0567627 4.0567627c0 2.2404785 -1.8162842 4.0567627 -4.0567627 4.0567627c-2.2404785 0 -4.0567627 -1.8162842 -4.0567627 -4.0567627m24.953583 0c0 -2.2404785 1.8162537 -4.0567627 4.0567627 -4.0567627c2.2404785 0 4.056732 1.8162842 4.056732 4.0567627c0 2.2404785 -1.8162537 4.0567627 -4.056732 4.0567627c-2.240509 0 -4.0567627 -1.8162842 -4.0567627 -4.0567627" fill-rule="evenodd"/><path stroke="#595959" stroke-width="2.0" stroke-linejoin="round" stroke-linecap="butt" d="m381.00186 325.6088q21.108368 14.496857 42.16745 0" fill-rule="evenodd"/><path stroke="#595959" stroke-width="2.0" stroke-linejoin="round" stroke-linecap="butt" d="m363.16534 308.62466l0 0c0 -21.508667 17.436218 -38.944885 38.944885 -38.944885c21.508667 0 38.944885 17.436218 38.944885 38.944885c0 21.508667 -17.436218 38.944885 -38.944885 38.944885c-21.508667 0 -38.944885 -17.436218 -38.944885 -38.944885z" fill-rule="evenodd"/><path fill="#eeeeee" d="m518.9449 308.62466l0 0c0 -21.508667 17.436218 -38.944885 38.944885 -38.944885c21.508667 0 38.944885 17.436218 38.944885 38.944885c0 21.508667 -17.436218 38.944885 -38.944885 38.944885c-21.508667 0 -38.944885 -17.436218 -38.944885 -38.944885z" fill-rule="evenodd"/><path fill="#bebebe" d="m541.3562 296.97726c0 -2.2404785 1.8162842 -4.0567627 4.0567627 -4.0567627c2.2404785 0 4.0567627 1.8162842 4.0567627 4.0567627c0 2.2404785 -1.8162842 4.0567627 -4.0567627 4.0567627c-2.2404785 0 -4.0567627 -1.8162842 -4.0567627 -4.0567627m24.953613 0c0 -2.2404785 1.8162231 -4.0567627 4.0567627 -4.0567627c2.2404785 0 4.0567017 1.8162842 4.0567017 4.0567627c0 2.2404785 -1.8162231 4.0567627 -4.0567017 4.0567627c-2.2405396 0 -4.0567627 -1.8162842 -4.0567627 -4.0567627" fill-rule="evenodd"/><path fill="#000000" fill-opacity="0.0" d="m536.7814 325.6088q21.108398 14.496857 42.16748 0" fill-rule="evenodd"/><path fill="#000000" fill-opacity="0.0" d="m518.9449 308.62466l0 0c0 -21.508667 17.436218 -38.944885 38.944885 -38.944885c21.508667 0 38.944885 17.436218 38.944885 38.944885c0 21.508667 -17.436218 38.944885 -38.944885 38.944885c-21.508667 0 -38.944885 -17.436218 -38.944885 -38.944885z" fill-rule="evenodd"/><path stroke="#595959" stroke-width="2.0" stroke-linejoin="round" stroke-linecap="butt" d="m541.3562 296.97726c0 -2.2404785 1.8162842 -4.0567627 4.0567627 -4.0567627c2.2404785 0 4.0567627 1.8162842 4.0567627 4.0567627c0 2.2404785 -1.8162842 4.0567627 -4.0567627 4.0567627c-2.2404785 0 -4.0567627 -1.8162842 -4.0567627 -4.0567627m24.953613 0c0 -2.2404785 1.8162231 -4.0567627 4.0567627 -4.0567627c2.2404785 0 4.0567017 1.8162842 4.0567017 4.0567627c0 2.2404785 -1.8162231 4.0567627 -4.0567017 4.0567627c-2.2405396 0 -4.0567627 -1.8162842 -4.0567627 -4.0567627" fill-rule="evenodd"/><path stroke="#595959" stroke-width="2.0" stroke-linejoin="round" stroke-linecap="butt" d="m536.7814 325.6088q21.108398 14.496857 42.16748 0" fill-rule="evenodd"/><path stroke="#595959" stroke-width="2.0" stroke-linejoin="round" stroke-linecap="butt" d="m518.9449 308.62466l0 0c0 -21.508667 17.436218 -38.944885 38.944885 -38.944885c21.508667 0 38.944885 17.436218 38.944885 38.944885c0 21.508667 -17.436218 38.944885 -38.944885 38.944885c-21.508667 0 -38.944885 -17.436218 -38.944885 -38.944885z" fill-rule="evenodd"/><path fill="#ffab40" d="m441.0551 308.62466l13.275604 -13.275574l0 6.637787l51.338562 0l0 -6.637787l13.275604 13.275574l-13.275604 13.275604l0 -6.637787l-51.338562 0l0 6.637787z" fill-rule="evenodd"/><path stroke="#595959" stroke-width="2.0" stroke-linejoin="round" stroke-linecap="butt" d="m441.0551 308.62466l13.275604 -13.275574l0 6.637787l51.338562 0l0 -6.637787l13.275604 13.275574l-13.275604 13.275604l0 -6.637787l-51.338562 0l0 6.637787z" fill-rule="evenodd"/><path fill="#eeeeee" d="m441.0551 156.67192l0 0c0 -21.508667 17.436218 -38.944885 38.944885 -38.944885c21.508667 0 38.944885 17.436218 38.944885 38.944885c0 21.508667 -17.436218 38.94487 -38.944885 38.94487c-21.508667 0 -38.944885 -17.436203 -38.944885 -38.94487z" fill-rule="evenodd"/><path fill="#bebebe" d="m463.46646 145.0245c0 -2.2404785 1.8162537 -4.0567474 4.0567627 -4.0567474c2.2404785 0 4.0567627 1.8162689 4.0567627 4.0567474c0 2.2404938 -1.8162842 4.0567627 -4.0567627 4.0567627c-2.240509 0 -4.0567627 -1.8162689 -4.0567627 -4.0567627m24.953552 0c0 -2.2404785 1.8162842 -4.0567474 4.0567627 -4.0567474c2.240509 0 4.0567627 1.8162689 4.0567627 4.0567474c0 2.2404938 -1.8162537 4.0567627 -4.0567627 4.0567627c-2.2404785 0 -4.0567627 -1.8162689 -4.0567627 -4.0567627" fill-rule="evenodd"/><path fill="#000000" fill-opacity="0.0" d="m458.89163 173.65604q21.108368 14.496841 42.16745 0" fill-rule="evenodd"/><path fill="#000000" fill-opacity="0.0" d="m441.0551 156.67192l0 0c0 -21.508667 17.436218 -38.944885 38.944885 -38.944885c21.508667 0 38.944885 17.436218 38.944885 38.944885c0 21.508667 -17.436218 38.94487 -38.944885 38.94487c-21.508667 0 -38.944885 -17.436203 -38.944885 -38.94487z" fill-rule="evenodd"/><path stroke="#595959" stroke-width="2.0" stroke-linejoin="round" stroke-linecap="butt" d="m463.46646 145.0245c0 -2.2404785 1.8162537 -4.0567474 4.0567627 -4.0567474c2.2404785 0 4.0567627 1.8162689 4.0567627 4.0567474c0 2.2404938 -1.8162842 4.0567627 -4.0567627 4.0567627c-2.240509 0 -4.0567627 -1.8162689 -4.0567627 -4.0567627m24.953552 0c0 -2.2404785 1.8162842 -4.0567474 4.0567627 -4.0567474c2.240509 0 4.0567627 1.8162689 4.0567627 4.0567474c0 2.2404938 -1.8162537 4.0567627 -4.0567627 4.0567627c-2.2404785 0 -4.0567627 -1.8162689 -4.0567627 -4.0567627" fill-rule="evenodd"/><path stroke="#595959" stroke-width="2.0" stroke-linejoin="round" stroke-linecap="butt" d="m458.89163 173.65604q21.108368 14.496841 42.16745 0" fill-rule="evenodd"/><path stroke="#595959" stroke-width="2.0" stroke-linejoin="round" stroke-linecap="butt" d="m441.0551 156.67192l0 0c0 -21.508667 17.436218 -38.944885 38.944885 -38.944885c21.508667 0 38.944885 17.436218 38.944885 38.944885c0 21.508667 -17.436218 38.94487 -38.944885 38.94487c-21.508667 0 -38.944885 -17.436203 -38.944885 -38.94487z" fill-rule="evenodd"/></g></svg>